<svg xmlns="http://www.w3.org/2000/svg" width="189.396" height="34.65" viewBox="0 0 189.396 34.65">
    <defs>
        <style>
            .cls-1{fill:#fff}
        </style>
    </defs>
    <g id="그룹_15049" transform="translate(-340 -34.675)">
        <g id="그룹_14963" transform="translate(340 34.675)">
            <g id="그룹_14960" transform="translate(118.345 4.019)">
                <g id="그룹_14959">
                    <path id="패스_11308" d="M-162.087 80.767V82h3.018v1.168h-3.018v2.355h-1.313V79.6h4.761v1.17z" class="cls-1" transform="translate(163.859 -79.597)"/>
                    <path id="패스_11309" d="M-151.506 79.6v4.762l-1.17 1.169h-2.59l-1.168-1.169V79.6h1.308v4.28l.479.479h1.352l.542-.54V79.6z" class="cls-1" transform="translate(162.689 -79.597)"/>
                    <path id="패스_11310" d="M-144.226 80.767h-1.874v4.761h-1.308v-4.761h-1.875V79.6h5.058z" class="cls-1" transform="translate(161.487 -79.597)"/>
                    <path id="패스_11311" d="M-137.049 79.6v4.762l-1.169 1.169h-2.59l-1.169-1.169V79.6h1.308v4.28l.48.479h1.352l.541-.54V79.6z" class="cls-1" transform="translate(160.259 -79.597)"/>
                    <path id="패스_11312" d="M-130.542 85.528l-1.212-2.2h-1.282v2.2h-1.309V79.6h3.994l.977.978v1.77l-.95.958 1.238 2.225zm-2.494-3.358h2.057l.3-.305v-.811l-.3-.287h-2.057z" class="cls-1" transform="translate(158.977 -79.597)"/>
                    <path id="패스_11313" d="M-125.394 80.767v1.2h3.018v1.169h-3.018v1.22h3.454v1.169h-4.76V79.6h4.762v1.17z" class="cls-1" transform="translate(157.692 -79.597)"/>
                    <path id="패스_11314" d="M-159.809 96.958h-2.391l-.41 1.151h-1.344l2.32-5.931h1.317l2.32 5.931h-1.4zm-.418-1.17l-.773-2.17-.776 2.171z" class="cls-1" transform="translate(163.952 -81.711)"/>
                    <path id="패스_11315" d="M-151.74 98.109l-1.212-2.2h-1.282v2.2h-1.31v-5.931h4l.977.978v1.77l-.951.958 1.239 2.225zm-2.494-3.358h2.057l.3-.305v-.811l-.3-.287h-2.057z" class="cls-1" transform="translate(162.539 -81.711)"/>
                    <path id="패스_11316" d="M-143.109 97.115l-1 .994h-2.816l-1.17-1.169v-3.592l1.17-1.17h2.755l.994 1-.89.889-.715-.715h-1.519l-.48.479v2.634l.48.479h1.587l.715-.715z" class="cls-1" transform="translate(161.287 -81.711)"/>
                    <path id="패스_11317" d="M-135.787 92.178v5.931h-1.313v-2.424h-2.441v2.424h-1.309v-5.931h1.309v2.338h2.441v-2.338z" class="cls-1" transform="translate(160.069 -81.711)"/>
                    <path id="패스_11318" d="M-130.871 93.348v3.592h1.063v1.169h-3.436V96.94h1.064v-3.592h-1.064v-1.17h3.436v1.17z" class="cls-1" transform="translate(158.792 -81.711)"/>
                    <path id="패스_11319" d="M-123.017 93.348h-1.875v4.761h-1.308v-4.761h-1.875v-1.17h5.058z" class="cls-1" transform="translate(157.923 -81.711)"/>
                    <path id="패스_11320" d="M-119.365 93.348v1.2h3.018v1.172h-3.018v1.22h3.453v1.169h-4.762v-5.931h4.762v1.17z" class="cls-1" transform="translate(156.68 -81.711)"/>
                    <path id="패스_11321" d="M-108.639 97.115l-.994.994h-2.817l-1.168-1.169v-3.592l1.168-1.17h2.756l.994 1-.889.889-.715-.715h-1.527l-.48.479v2.634l.48.479h1.587l.715-.715z" class="cls-1" transform="translate(155.494 -81.711)"/>
                    <path id="패스_11322" d="M-101.8 93.348h-1.875v4.761h-1.308v-4.761h-1.875v-1.17h5.058z" class="cls-1" transform="translate(154.358 -81.711)"/>
                    <path id="패스_11323" d="M-94.621 92.178v4.762l-1.169 1.169h-2.59l-1.169-1.169v-4.762h1.309v4.283l.479.479h1.352l.541-.54v-4.222z" class="cls-1" transform="translate(153.13 -81.711)"/>
                    <path id="패스_11324" d="M-88.113 98.109l-1.212-2.2h-1.282v2.2h-1.31v-5.931h4l.977.978v1.77l-.951.958 1.239 2.225zm-2.494-3.358h2.057l.3-.305v-.811l-.3-.287h-2.057z" class="cls-1" transform="translate(151.847 -81.711)"/>
                    <path id="패스_11325" d="M-82.965 93.348v1.2h3.018v1.172h-3.018v1.22h3.453v1.169h-4.762v-5.931h4.762v1.17z" class="cls-1" transform="translate(150.563 -81.711)"/>
                    <path id="패스_11326" d="M-158.346 105.928v3.593l-1.169 1.168h-3.885v-5.929h3.881zm-1.309.48l-.479-.48h-1.953v3.593h1.953l.479-.48z" class="cls-1" transform="translate(163.859 -83.825)"/>
                    <path id="패스_11327" d="M-153.622 105.928v3.593h1.064v1.168h-3.436v-1.168h1.063v-3.593h-1.063v-1.168h3.436v1.168z" class="cls-1" transform="translate(162.615 -83.825)"/>
                    <path id="패스_11328" d="M-146.757 109.539h-2.389l-.41 1.151h-1.344l2.32-5.929h1.317l2.32 5.929h-1.4zm-.418-1.169l-.776-2.171-.776 2.171z" class="cls-1" transform="translate(161.759 -83.825)"/>
                    <path id="패스_11329" d="M-137.55 107.149v3.54h-1l-.087-.731-.732.731h-2.233l-1.169-1.168v-3.593l1.169-1.168h2.887l.958.959-.889.889-.681-.681h-1.657l-.48.48v2.633l.48.48h1.421l.707-.707v-.513h-1.308v-1.151z" class="cls-1" transform="translate(160.393 -83.825)"/>
                    <path id="패스_11330" d="M-129.853 104.76v5.929h-1.072l-2.739-3.881v3.881h-1.247v-5.929h1.212l2.6 3.689v-3.689z" class="cls-1" transform="translate(159.072 -83.825)"/>
                    <path id="패스_11331" d="M-121.982 105.928v3.593l-1.17 1.168h-2.894l-1.17-1.168v-3.593l1.17-1.168h2.894zm-1.309 3.113v-2.633l-.48-.48h-1.656l-.48.48v2.633l.48.48h1.656z" class="cls-1" transform="translate(157.779 -83.825)"/>
                    <path id="패스_11332" d="M-114.55 108.118v1.582l-.993.993h-3.257l-.933-.933.889-.889.671.671h1.98l.331-.332v-.61l-.244-.245-2.564-.157-.908-.906v-1.535l1-.994h3.043l.9.9-.889.889-.637-.636h-1.77l-.331.332v.566l.245.245 2.564.157z" class="cls-1" transform="translate(156.521 -83.825)"/>
                    <path id="패스_11333" d="M-109.967 105.928v3.593h1.064v1.168h-3.436v-1.168h1.064v-3.593h-1.064v-1.168h3.436v1.168z" class="cls-1" transform="translate(155.279 -83.825)"/>
                    <path id="패스_11334" d="M-101.927 108.118v1.582l-.994.993h-3.253l-.933-.933.889-.889.672.671h1.98l.331-.332v-.61l-.245-.245-2.564-.157-.907-.906v-1.535l.994-.994h3.044l.9.9-.889.889-.636-.636h-1.77l-.331.332v.566l.244.245 2.564.157z" class="cls-1" transform="translate(154.4 -83.825)"/>
                </g>
            </g>
            <g id="그룹_14961">
                <path id="패스_11335" d="M-295.232 84.716v5.656h18.715v9.949h-18.715v9.094H-306.2V74.766h32.232v9.95z" class="cls-1" transform="translate(306.201 -74.766)"/>
                <path id="패스_11336" d="M-243.845 103.3h-12.536l-2.037 6.114h-12.869l14.944-34.65h12.919l14.944 34.65h-13.326zm-3.165-9.339l-3.1-7.566-3.042 7.566z" class="cls-1" transform="translate(300.334 -74.766)"/>
                <path id="패스_11337" d="M-183.878 81.645v20.892l-6.879 6.879h-27.084v-34.65h27.084zm-10.969 5.211l-2.141-2.14h-9.885v14.751h9.885l2.141-2.141z" class="cls-1" transform="translate(291.353 -74.766)"/>
            </g>
        </g>
    </g>
</svg>
